<svg xmlns="http://www.w3.org/2000/svg" viewBox="0 0 57.983 57.983"><path d="M37.991 0c-10.77 0-19.5 7.827-19.5 17.483 0 3.558 1.189 6.866 3.225 9.628-.268 3.19-1.037 7.684-3.225 9.872 0 0 6.686-.938 11.214-3.673a21.312 21.312 0 0 0 8.286 1.656c10.77 0 19.5-7.827 19.5-17.483S48.761 0 37.991 0z" fill="#0391fd"/><path d="M25.934 55.598l-4.177-2.67c-1.037-.566-2.244-2.524-2.244-3.705v-3.24s2.882-1.905 3.768-5.762a2.66 2.66 0 0 0 1.226-2.231v-2.425c-3.207 1.021-6.014 1.418-6.014 1.418 2.188-2.188 2.957-6.682 3.225-9.872a16.596 16.596 0 0 1-2.549-5.098c-1.395-.625-3.231-1.029-5.655-1.029-10.803 0-10 8-10 8v3.126c-.54.488-.993 1.555-.993 2.335v3.546c0 .934.491 1.756 1.226 2.231.886 3.857 3.768 5.762 3.768 5.762v3.24c0 1.182-1.207 3.14-2.244 3.705l-4.177 2.67c-1.09.697-.596 2.385.697 2.385H25.24c1.29-.001 1.783-1.689.694-2.386z" fill="#a1c8ec"/><circle cx="27.491" cy="17.983" r="3" fill="#fff"/><circle cx="38.491" cy="17.983" r="3" fill="#fff"/><circle cx="49.491" cy="17.983" r="3" fill="#fff"/></svg>