<svg height="472pt" viewBox="-4 0 472 472.433" width="472pt" xmlns="http://www.w3.org/2000/svg"><path d="M392.215 227.145V192h-48v35.145c-46.805 12.085-77.324 57.09-71.235 105.046 6.094 47.957 46.895 83.903 95.235 83.903 48.344 0 89.144-35.946 95.238-83.903 6.09-47.957-24.43-92.96-71.238-105.046zm0 0" fill="#32ce9e"/><path d="M432.215 304a47.936 47.936 0 0 1-38.606-76.434c-.472-.125-.921-.293-1.394-.421V192h-48v35.145c-37.735 9.742-65.836 41.335-71.113 79.953-5.278 38.617 13.316 76.59 47.058 96.101 33.738 19.512 75.926 16.688 106.766-7.148 30.836-23.832 44.203-63.946 33.828-101.516a47.736 47.736 0 0 1-28.54 9.465zm0 0" fill="#0c5058"/><path d="M120.215 227.145V192h-48v35.145C25.41 239.23-5.11 284.235.98 332.19c6.094 47.957 46.895 83.903 95.235 83.903 48.344 0 89.144-35.946 95.238-83.903 6.09-47.957-24.43-92.96-71.238-105.046zm0 0" fill="#ffc215"/><path d="M160.215 304a47.936 47.936 0 0 1-38.606-76.434c-.472-.125-.921-.293-1.394-.421V192h-48v35.145C34.48 236.887 6.379 268.48 1.102 307.098c-5.278 38.617 13.316 76.59 47.058 96.101 33.738 19.512 75.926 16.688 106.766-7.148 30.836-23.832 44.203-63.946 33.828-101.516a47.736 47.736 0 0 1-28.54 9.465zm0 0" fill="#f8ac01"/><path d="M460.61 294.191l-.633-.312a108.921 108.921 0 0 0-89.184-3.711 108.938 108.938 0 0 1-70.402 3.602l-22.399-6.403a95.347 95.347 0 0 0 6.074 78.863l58.399-26.558a50.761 50.761 0 0 1 49.176 4 50.789 50.789 0 0 0 50.87 3.2l20.145-10.071a92.862 92.862 0 0 0-2.047-42.586zm0 0" fill="#cceefa"/><path d="M256.215 266.895V232h-48v34.895c-51.34 12.175-85.422 60.87-79.293 113.277s50.531 91.918 103.293 91.918c52.765 0 97.168-39.512 103.297-91.918 6.129-52.406-27.957-101.102-79.297-113.277zm0 0" fill="#ec7259"/><path d="M304.215 352a55.91 55.91 0 0 1-48.824-28.516 55.9 55.9 0 0 1 1.02-56.53l-.196-.06V232h-48v34.895c-41.063 9.66-72.246 43.136-78.969 84.785-6.726 41.644 12.336 83.234 48.274 105.328s81.652 20.324 115.777-4.477 49.918-67.738 40-108.738A55.621 55.621 0 0 1 304.215 352zm0 0" fill="#b24018"/><path d="M120.215 320c0 13.254-10.742 24-24 24-13.254 0-24-10.746-24-24s10.746-24 24-24c13.258 0 24 10.746 24 24zm0 0M32.215 352a31.88 31.88 0 0 0-22.55 9.313 96.138 96.138 0 0 0 45.241 45.238 32 32 0 0 0 6.844-34.84A32.01 32.01 0 0 0 32.215 352zm0 0M32.215 288c11.504-.074 21.336-8.3 23.441-19.61s-4.11-22.519-14.816-26.726a96.339 96.339 0 0 0-29.598 33.762A23.885 23.885 0 0 0 32.215 288zm0 0" fill="#f2d9c9"/><g fill="#a59d99"><path d="M224.215 192h16v16h-16zm0 0M224.215 160h16v16h-16zm0 0M224.215 128h16v16h-16zm0 0M224.215 96h16v16h-16zm0 0M224.215 64h16v16h-16zm0 0M224.215 32h16v16h-16zm0 0M224.215 0h16v16h-16zm0 0M88.215 152h16v16h-16zm0 0M88.215 120h16v16h-16zm0 0M88.215 88h16v16h-16zm0 0M88.215 56h16v16h-16zm0 0M88.215 24h16v16h-16zm0 0M360.215 152h16v16h-16zm0 0M360.215 120h16v16h-16zm0 0M360.215 88h16v16h-16zm0 0M360.215 56h16v16h-16zm0 0M360.215 24h16v16h-16zm0 0"/></g><path d="M168.215 400h16v16h-16zm0 0M224.215 312h16v16h-16zm0 0M280.215 400h16v16h-16zm0 0M232.496 352l12.274 24.871 27.445 3.984-19.863 19.36 4.695 27.336-24.55-12.903-24.552 12.903 4.688-27.336-19.856-19.36 27.446-3.984zm0 0M304.273 293.113l-4.058 8.207-27.445 4 19.855 19.36-4.68 27.32 24.551-12.902 22.176 11.656a103.636 103.636 0 0 0-30.399-57.64zm0 0M176.488 344l-4.687-27.336 19.855-19.36-27.449-4-1.32-2.687a103.825 103.825 0 0 0-31.2 51.102l20.243-10.64zm0 0" fill="#fbfafa"/></svg>