<svg height="512pt" viewBox="-73 0 512 512.001" width="512pt" xmlns="http://www.w3.org/2000/svg"><path d="M182.645 109.64c-30.227 0-54.82-24.59-54.82-54.82 0-30.226 24.593-54.82 54.82-54.82 30.23 0 54.824 24.594 54.824 54.82 0 30.23-24.594 54.82-54.824 54.82zm0-93.882c-21.54 0-39.063 17.523-39.063 39.062 0 21.54 17.523 39.063 39.063 39.063 21.539 0 39.062-17.524 39.062-39.063s-17.523-39.062-39.062-39.062zm0 0" fill="#ffe66b"/><path d="M237.121 119.535v35.86h-108.95v-35.86c0-15.625 12.669-28.281 28.282-28.281h52.387c15.625 0 28.281 12.656 28.281 28.281zm0 0" fill="#f79e31"/><path d="M237.121 119.535v35.86h-73.078v-35.86c0-15.625 12.668-28.281 28.281-28.281h16.516c15.625 0 28.281 12.656 28.281 28.281zm0 0" fill="#ffe66b"/><path d="M365.309 329.34c0 2.648-.051 5.273-.168 7.89-3.414 80.387-58.79 147.329-133.41 168.11-15.61 4.34-32.07 6.66-49.07 6.66C84.413 512 4.296 434.45.18 337.23c-.125-2.617-.18-5.242-.18-7.89 0-2.637.055-5.262.168-7.867C4.285 224.243 84.402 146.69 182.66 146.69c8.73 0 17.324.61 25.73 1.797a179.974 179.974 0 0 1 23.34 4.864c69.036 19.226 121.594 77.941 131.774 150.28a177.603 177.603 0 0 1 1.637 17.84c.117 2.606.168 5.231.168 7.868zm0 0" fill="#dc4250"/><path d="M363.5 303.637c-8.574 51.96-46.844 93.89-96.8 107.808a135.123 135.123 0 0 1-36.223 4.918c-74.473 0-134.836-60.375-134.836-134.84 0-66.941 48.785-122.484 112.742-133.03a180.55 180.55 0 0 1 23.344 4.862c69.035 19.227 121.593 77.942 131.773 150.282zm0 0" fill="#ef5361"/><g fill="#ffe66b"><path d="M250.39 329.348l26.946-26.946a7.88 7.88 0 0 0-11.145-11.14l-30.21 30.21h-20.708a33.086 33.086 0 0 0-3.98-9.617l16.953-16.953a7.874 7.874 0 0 0 0-11.14 7.874 7.874 0 0 0-11.14 0l-16.954 16.949a33.204 33.204 0 0 0-9.617-3.984v-20.715l30.203-30.203a7.88 7.88 0 0 0 0-11.145 7.874 7.874 0 0 0-11.14 0l-26.946 26.945-26.945-26.945a7.874 7.874 0 0 0-11.14 0 7.88 7.88 0 0 0 0 11.145l30.21 30.21v20.708a33.096 33.096 0 0 0-9.617 3.984l-16.953-16.953a7.88 7.88 0 0 0-11.14 11.145l16.949 16.949a33.204 33.204 0 0 0-3.985 9.617h-20.707l-30.21-30.211a7.88 7.88 0 0 0-11.14 11.145l26.944 26.945-26.945 26.941a7.88 7.88 0 0 0 0 11.145c1.539 1.539 3.554 2.308 5.57 2.308s4.031-.77 5.57-2.308l30.207-30.207h20.715a33.074 33.074 0 0 0 3.985 9.62l-16.954 16.95a7.88 7.88 0 0 0 0 11.144c1.54 1.54 3.555 2.309 5.57 2.309s4.036-.77 5.571-2.309l16.965-16.96a33.3 33.3 0 0 0 9.601 3.968l.004 20.727-30.21 30.21a7.886 7.886 0 0 0 0 11.145 7.886 7.886 0 0 0 11.144 0l26.945-26.945 26.942 26.945a7.867 7.867 0 0 0 5.574 2.305 7.88 7.88 0 0 0 5.57-13.45l-30.207-30.206-.004-20.73a33.356 33.356 0 0 0 9.61-3.973l16.964 16.964a7.853 7.853 0 0 0 5.57 2.309c2.02 0 4.036-.77 5.575-2.309a7.88 7.88 0 0 0 0-11.144l-16.957-16.953a33.042 33.042 0 0 0 3.98-9.617h20.715l30.207 30.207c1.54 1.539 3.555 2.308 5.57 2.308s4.032-.77 5.57-2.308a7.88 7.88 0 0 0 0-11.145zm-55.156 12.582c-.007.004-.007.007-.011.011-6.93 6.914-18.18 6.918-25.114.024l-.035-.035-.039-.035a17.668 17.668 0 0 1-5.18-12.547c0-4.754 1.852-9.223 5.211-12.582a17.694 17.694 0 0 1 12.586-5.211c4.735 0 9.184 1.836 12.54 5.172a.414.414 0 0 1 .038.046.205.205 0 0 1 .043.04 17.654 17.654 0 0 1 5.168 12.453c0 .03-.004.058-.004.086 0 .027.004.054.004.082a17.683 17.683 0 0 1-5.195 12.484l-.012.012zm0 0M54.355 291.262a7.874 7.874 0 0 0-11.14 0l-30.211 30.21H.168C.055 324.079 0 326.704 0 329.34c0 2.648.055 5.273.18 7.89h12.828l30.207 30.204c1.539 1.539 3.555 2.308 5.57 2.308s4.031-.77 5.57-2.308a7.874 7.874 0 0 0 0-11.141L27.41 329.348l26.945-26.946a7.874 7.874 0 0 0 0-11.14zm0 0M365.309 329.34c0-2.637-.051-5.262-.168-7.867h-12.852l-30.21-30.211c-3.079-3.078-8.067-3.078-11.145 0s-3.079 8.066 0 11.14l26.945 26.946-26.945 26.945a7.874 7.874 0 0 0 0 11.14 7.853 7.853 0 0 0 5.57 2.31c2.02 0 4.035-.77 5.574-2.31l30.207-30.203h12.86c.113-2.617.164-5.242.164-7.89zm0 0"/></g></svg>