<svg height="467pt" viewBox="-17 0 467 467.096" width="467pt" xmlns="http://www.w3.org/2000/svg"><path d="M176.047 195.098h-152v240c0 17.672 14.328 32 32 32h136v-272zm0 0" fill="#ffcd00"/><path d="M408.047 435.098v-240h-168v272h136c17.676 0 32-14.328 32-32zm0 0" fill="#ffd217"/><path d="M220.129 115.098a70.37 70.37 0 0 0-4.082-34.243 162.554 162.554 0 0 0-33.918-59.601c-25.043-24.957-63.602-26.879-79.2-11.277-15.6 15.597-13.683 54.16 11.278 79.199a144.41 144.41 0 0 0 39.36 25.922zm-83.281-48.563a37.485 37.485 0 0 1-11.121-33.758 37.476 37.476 0 0 1 33.761 11.118 134.448 134.448 0 0 1 27.04 49.68 134.36 134.36 0 0 1-49.68-27.04zm0 0" fill="#bf243d"/><path d="M176.047 115.098h-176v80h176zm0 0" fill="#ed539d"/><path d="M256.047 195.098h176v-80h-176zm0 0" fill="#f17fb5"/><path d="M220.129 115.098h58.398a144.292 144.292 0 0 0 39.36-25.922c24.96-25.04 26.883-63.602 11.281-79.2-15.602-15.601-54.16-13.68-79.2 11.278a162.563 162.563 0 0 0-33.921 59.601 70.37 70.37 0 0 1 4.082 34.243zm52.488-71.203a37.601 37.601 0 0 1 33.774-11.145 37.588 37.588 0 0 1-11.145 33.777 133.752 133.752 0 0 1-49.703 27.082 133.899 133.899 0 0 1 27.074-49.714zm0 0" fill="#df2a47"/><path d="M220.129 115.098h-44.082v80h80v-80zm0 0" fill="#ff3051"/><path d="M24.047 195.098h384v16h-384zm0 0" fill="#e5b800"/><path d="M192.047 195.098h48v272h-48zm0 0" fill="#ff4764"/></svg>