<svg height="512pt" viewBox="0 -31 512 512" width="512pt" xmlns="http://www.w3.org/2000/svg"><path d="M437 0h-61c-52.5 0-97.8 30.598-120 74.398C233.8 30.598 188.5 0 136 0H76c-8.402 0-15 6.598-15 15 0 74.398 60.602 135 135 135h120c74.398 0 136-60.602 136-135 0-8.402-6.598-15-15-15zm0 0" fill="#ffd400"/><path d="M437 0h-61c-52.5 0-97.8 30.598-120 74.398V150h60c74.398 0 136-60.602 136-135 0-8.402-6.598-15-15-15zm0 0" fill="#fdbf00"/><path d="M256 150c-2.898 0-5.8-.84-8.32-2.52l-90-60c-6.895-4.593-8.754-13.91-4.16-20.8 4.593-6.895 13.91-8.754 20.8-4.16L256 116.973l81.68-54.453c6.89-4.594 16.207-2.735 20.8 4.16 4.594 6.894 2.735 16.207-4.16 20.8l-90 60A14.989 14.989 0 0 1 256 150zm0 0" fill="#fdbf00"/><path d="M264.32 147.48l90-60c6.895-4.593 8.754-13.91 4.16-20.8-4.593-6.895-13.91-8.754-20.8-4.16L256 116.973V150c2.898 0 5.8-.84 8.32-2.52zm0 0" fill="#ff9f00"/><path d="M482 225v180c0 24.898-20.098 45-45 45H301l-45-30-45 30H76c-24.902 0-46-20.102-46-45V225c0-8.402 6.598-15 15-15h422c8.402 0 15 6.598 15 15zm0 0" fill="#ff4b00"/><path d="M482 225v180c0 24.898-20.098 45-45 45H301l-45-30V210h211c8.402 0 15 6.598 15 15zm0 0" fill="#dd3400"/><path d="M512 165v60c0 8.398-6.598 15-15 15H15c-8.402 0-15-6.602-15-15v-60c0-24.902 20.098-45 45-45h166l45 30 45-30h166c24.902 0 45 20.098 45 45zm0 0" fill="#ff7816"/><path d="M512 165v60c0 8.398-6.598 15-15 15H256v-90l45-30h166c24.902 0 45 20.098 45 45zm0 0" fill="#ff4b00"/><path d="M211 120h90v330h-90zm0 0" fill="#ffe470"/><path d="M256 120h45v330h-45zm0 0" fill="#ffd400"/></svg>