<svg xmlns="http://www.w3.org/2000/svg" viewBox="0 0 512 512"><path fill="#00b494" d="M23.04 165.06h465.93v344.325H23.04z"/><path fill="#414042" d="M68.963 465.529V165.057H23.035V509.38h465.93v-43.851z" opacity=".1"/><g fill="#00997c"><path d="M129.278 237.884c-2.826-6.281-5.124-8.583-11.406-11.409 6.282-2.831 8.58-5.126 11.411-11.42 2.83 6.292 5.127 8.589 11.409 11.414-6.282 2.832-8.58 5.134-11.414 11.415zM93.336 289.288c-2.834-6.287-5.127-8.584-11.413-11.412 6.286-2.834 8.58-5.127 11.413-11.408 2.832 6.281 5.125 8.574 11.411 11.408-6.286 2.829-8.58 5.126-11.411 11.412zM59.056 237.884c-2.837-6.285-5.133-8.583-11.416-11.409 6.283-2.837 8.579-5.129 11.416-11.42 2.825 6.292 5.124 8.583 11.406 11.414-6.282 2.832-8.581 5.134-11.406 11.415zM168.079 266.46c2.829 6.28 5.125 8.583 11.406 11.409-6.281 2.83-8.578 5.126-11.41 11.42-2.83-6.293-5.128-8.59-11.408-11.414 6.28-2.832 8.578-5.136 11.412-11.415zM204.023 215.055c2.834 6.287 5.127 8.583 11.414 11.412-6.287 2.834-8.581 5.127-11.414 11.408-2.831-6.281-5.125-8.574-11.412-11.408 6.286-2.829 8.581-5.125 11.412-11.412zM238.301 266.46c2.838 6.285 5.133 8.583 11.417 11.409-6.284 2.836-8.579 5.129-11.417 11.42-2.824-6.293-5.122-8.584-11.406-11.414 6.284-2.832 8.582-5.136 11.406-11.415zM343.921 237.884c-2.827-6.281-5.124-8.583-11.406-11.409 6.282-2.831 8.579-5.126 11.411-11.42 2.83 6.292 5.127 8.589 11.409 11.414-6.282 2.832-8.58 5.134-11.414 11.415zM307.978 289.288c-2.835-6.287-5.127-8.584-11.414-11.412 6.287-2.834 8.58-5.127 11.414-11.408 2.832 6.281 5.124 8.574 11.411 11.408-6.286 2.829-8.579 5.126-11.411 11.412zM273.697 237.884c-2.837-6.285-5.133-8.583-11.416-11.409 6.283-2.837 8.579-5.129 11.416-11.42 2.825 6.292 5.124 8.583 11.406 11.414-6.28 2.832-8.579 5.134-11.406 11.415zM382.722 266.46c2.827 6.28 5.125 8.583 11.406 11.409-6.281 2.83-8.579 5.126-11.411 11.42-2.829-6.293-5.127-8.59-11.408-11.414 6.281-2.832 8.579-5.136 11.413-11.415zM418.664 215.055c2.835 6.287 5.129 8.583 11.414 11.412-6.285 2.834-8.58 5.127-11.414 11.408-2.83-6.281-5.124-8.574-11.411-11.408 6.287-2.829 8.582-5.125 11.411-11.412zM452.944 266.46c2.837 6.285 5.133 8.583 11.415 11.409-6.283 2.836-8.579 5.129-11.415 11.42-2.824-6.293-5.122-8.584-11.406-11.414 6.284-2.832 8.582-5.136 11.406-11.415zM129.278 336.413c-2.826-6.281-5.124-8.583-11.406-11.409 6.282-2.831 8.58-5.126 11.411-11.42 2.83 6.292 5.127 8.589 11.409 11.414-6.282 2.832-8.58 5.134-11.414 11.415zM93.336 387.816c-2.834-6.287-5.127-8.584-11.413-11.412 6.286-2.834 8.58-5.127 11.413-11.408 2.832 6.281 5.125 8.574 11.411 11.408-6.286 2.829-8.58 5.126-11.411 11.412zM59.056 336.413c-2.837-6.285-5.133-8.583-11.416-11.409 6.283-2.837 8.579-5.129 11.416-11.42 2.825 6.292 5.124 8.583 11.406 11.414-6.282 2.832-8.581 5.134-11.406 11.415zM168.079 364.989c2.829 6.281 5.125 8.583 11.406 11.409-6.281 2.83-8.578 5.126-11.41 11.42-2.83-6.292-5.128-8.59-11.408-11.414 6.28-2.833 8.578-5.136 11.412-11.415zM204.023 313.584c2.834 6.287 5.127 8.583 11.414 11.412-6.287 2.834-8.581 5.127-11.414 11.408-2.831-6.281-5.125-8.574-11.412-11.408 6.286-2.829 8.581-5.125 11.412-11.412zM238.301 364.989c2.838 6.285 5.133 8.583 11.417 11.409-6.284 2.836-8.579 5.129-11.417 11.42-2.824-6.292-5.122-8.584-11.406-11.414 6.284-2.833 8.582-5.136 11.406-11.415zM343.921 336.413c-2.827-6.281-5.124-8.583-11.406-11.409 6.282-2.831 8.579-5.126 11.411-11.42 2.83 6.292 5.127 8.589 11.409 11.414-6.282 2.832-8.58 5.134-11.414 11.415zM307.978 387.816c-2.835-6.287-5.127-8.584-11.414-11.412 6.287-2.834 8.58-5.127 11.414-11.408 2.832 6.281 5.124 8.574 11.411 11.408-6.286 2.829-8.579 5.126-11.411 11.412zM273.697 336.413c-2.837-6.285-5.133-8.583-11.416-11.409 6.283-2.837 8.579-5.129 11.416-11.42 2.825 6.292 5.124 8.583 11.406 11.414-6.28 2.832-8.579 5.134-11.406 11.415zM382.722 364.989c2.827 6.281 5.125 8.583 11.406 11.409-6.281 2.83-8.579 5.126-11.411 11.42-2.829-6.292-5.127-8.59-11.408-11.414 6.281-2.833 8.579-5.136 11.413-11.415zM418.664 313.584c2.835 6.287 5.129 8.583 11.414 11.412-6.285 2.834-8.58 5.127-11.414 11.408-2.83-6.281-5.124-8.574-11.411-11.408 6.287-2.829 8.582-5.125 11.411-11.412zM452.944 364.989c2.837 6.285 5.133 8.583 11.415 11.409-6.283 2.836-8.579 5.129-11.415 11.42-2.824-6.292-5.122-8.584-11.406-11.414 6.284-2.833 8.582-5.136 11.406-11.415zM129.278 434.941c-2.826-6.281-5.124-8.583-11.406-11.409 6.282-2.831 8.58-5.126 11.411-11.42 2.83 6.292 5.127 8.589 11.409 11.414-6.282 2.833-8.58 5.134-11.414 11.415zM93.336 486.345c-2.834-6.287-5.127-8.583-11.413-11.412 6.286-2.834 8.58-5.127 11.413-11.408 2.832 6.281 5.125 8.574 11.411 11.408-6.286 2.829-8.58 5.126-11.411 11.412zM59.056 434.941c-2.837-6.285-5.133-8.583-11.416-11.409 6.283-2.837 8.579-5.129 11.416-11.42 2.825 6.292 5.124 8.583 11.406 11.414-6.282 2.833-8.581 5.134-11.406 11.415zM168.079 463.517c2.829 6.281 5.125 8.583 11.406 11.409-6.281 2.831-8.578 5.126-11.41 11.42-2.83-6.292-5.128-8.589-11.408-11.414 6.28-2.833 8.578-5.135 11.412-11.415zM204.023 412.112c2.834 6.287 5.127 8.583 11.414 11.412-6.287 2.834-8.581 5.127-11.414 11.408-2.831-6.281-5.125-8.574-11.412-11.408 6.286-2.829 8.581-5.124 11.412-11.412zM238.301 463.517c2.838 6.285 5.133 8.583 11.417 11.409-6.284 2.837-8.579 5.129-11.417 11.42-2.824-6.292-5.122-8.583-11.406-11.414 6.284-2.833 8.582-5.135 11.406-11.415zM343.921 434.941c-2.827-6.281-5.124-8.583-11.406-11.409 6.282-2.831 8.579-5.126 11.411-11.42 2.83 6.292 5.127 8.589 11.409 11.414-6.282 2.833-8.58 5.134-11.414 11.415zM307.978 486.345c-2.835-6.287-5.127-8.583-11.414-11.412 6.287-2.834 8.58-5.127 11.414-11.408 2.832 6.281 5.124 8.574 11.411 11.408-6.286 2.829-8.579 5.126-11.411 11.412zM273.697 434.941c-2.837-6.285-5.133-8.583-11.416-11.409 6.283-2.837 8.579-5.129 11.416-11.42 2.825 6.292 5.124 8.583 11.406 11.414-6.28 2.833-8.579 5.134-11.406 11.415zM382.722 463.517c2.827 6.281 5.125 8.583 11.406 11.409-6.281 2.831-8.579 5.126-11.411 11.42-2.829-6.292-5.127-8.589-11.408-11.414 6.281-2.833 8.579-5.135 11.413-11.415zM418.664 412.112c2.835 6.287 5.129 8.583 11.414 11.412-6.285 2.834-8.58 5.127-11.414 11.408-2.83-6.281-5.124-8.574-11.411-11.408 6.287-2.829 8.582-5.124 11.411-11.412zM452.944 463.517c2.837 6.285 5.133 8.583 11.415 11.409-6.283 2.837-8.579 5.129-11.415 11.42-2.824-6.292-5.122-8.583-11.406-11.414 6.284-2.833 8.582-5.135 11.406-11.415z"/></g><path fill="#f0d355" d="M203.327 165.06h105.336v344.325H203.327z"/><path d="M512 182.887c0 8.656-7.018 15.673-15.673 15.673H15.673C7.018 198.56 0 191.543 0 182.887v-73.143c0-8.656 7.018-15.673 15.673-15.673h480.653c8.656 0 15.673 7.018 15.673 15.673v73.143z" fill="#ed5d51"/><path d="M53.29 182.887v-73.143c0-8.656 7.018-15.673 15.673-15.673h-53.29C7.018 94.071 0 101.088 0 109.744v73.143c0 8.656 7.018 15.673 15.673 15.673h53.29c-8.656 0-15.673-7.017-15.673-15.673z" fill="#414042" opacity=".1"/><path d="M395.231 2.615c-27.933 0-57.471 14.484-85.419 41.887-13.055 12.8-22.858 25.5-28.441 33.328-5.073-8.747-14.531-14.634-25.37-14.634s-20.298 5.887-25.37 14.634c-5.583-7.828-15.387-20.528-28.442-33.328-27.948-27.402-57.486-41.887-85.42-41.887-30.905 0-56.047 21.307-56.047 47.494 0 19.736 14.357 36.848 34.869 43.962h96.672v104.49h127.478V94.071h96.669c20.513-7.115 34.872-24.227 34.872-43.962-.002-26.188-25.145-47.494-56.051-47.494zM114.823 81.898a7.459 7.459 0 0 0-.784-.08C92.947 80.699 76.426 66.773 76.426 50.11c0-17.528 18.097-31.788 40.341-31.788 29.889 0 56.84 20.208 74.188 37.162 9.768 9.547 17.688 19.18 23.155 26.414h-99.287zm283.137-.081a8.13 8.13 0 0 0-.784.08H297.89c5.467-7.234 13.386-16.868 23.155-26.414 31.426-30.717 57.688-37.162 74.186-37.162 22.246 0 40.344 14.259 40.344 31.788-.001 16.662-16.523 30.588-37.615 31.708z" fill="#dac04e"/></svg>