<svg xmlns="http://www.w3.org/2000/svg" viewBox="0 0 512 512"><path fill="#ed7064" d="M22.568 229.834L231.939 109.12 441.31 229.834l.145-.084v161.286L231.939 512 22.423 391.036V229.75z"/><path fill="#c40041" d="M22.423 391.036L231.939 512V350.715L22.423 229.75z"/><path fill="#f43834" d="M231.939 350.715L441.455 229.75v161.286L231.939 512z"/><path fill="#ff8a5c" d="M11.317 167.729L231.939 40.528l220.622 127.201.152-.088v55.802L231.939 350.907 11.165 223.443v-55.802z"/><path fill="#f43834" d="M11.165 223.443l220.774 127.464v-55.802L11.165 167.641z"/><path fill="#ff5331" d="M231.939 295.105l220.774-127.464v55.802L231.939 350.907z"/><path fill="#ff812c" d="M143.114 460.717L88.266 429.05V211.973L308.631 84.745l54.821 31.608-220.338 127.212z"/><path fill="#ff9f2c" d="M321.864 460.07l54.848-31.667V211.326L156.348 84.098l-54.822 31.608 220.338 127.212z"/><g fill="#ffd800"><path d="M321.864 242.918l54.848-31.592L156.348 84.098l-54.822 31.608z"/><path d="M143.114 243.565l-54.848-31.592L308.631 84.745l54.821 31.608z"/></g><g fill="#f0c419"><path d="M459.912 204.961l-12.724-31.232 53.647-17.055-250.415-45.162-40.893 48.292z"/><path d="M229.829 366.666l-26.011-21.465-32.289 46.113 31.629-252.482 58.296-24.618z"/></g><path d="M250.838 134.616a17.769 17.769 0 0 1-3.04-16.781c9.529-28.74 36.521-102.331 81.496-115.963 42.026-12.738 94.921 41.85 61.405 93.683-26.688 41.273-89.968 53.439-114.645 56.683a17.79 17.79 0 0 1-16.176-6.439l-9.04-11.183z" fill="#ffd800"/><path d="M360.892 61.068c19.805-10.837 30.242 1.518 23.479 21.507-6.764 19.99-41.373 39.044-61.926 49.099-20.553 10.055-48.773 13.685-48.773 13.685s67.415-73.454 87.22-84.291z" fill="#dca700"/><path d="M183.568 131.791c6.849-5.409 14.667-8.286 22.502-8.903 10.433-.823 19.702-6.173 25.631-14.797 4.453-6.478 10.855-11.811 18.966-15.038 17.143-6.821 37.244-1.057 48.228 13.767 15.006 20.252 8.728 48.39-12.458 60.622a41.067 41.067 0 0 1-18.07 5.454c-10.028.614-18.961 5.771-24.507 14.149a41.056 41.056 0 0 1-13.758 12.921c-21.187 12.232-48.696 3.599-58.73-19.525-7.344-16.926-2.283-37.215 12.196-48.65z" fill="#ffe252"/><path d="M199.189 156.221a17.77 17.77 0 0 0-14.879-8.335c-30.277-.34-108.646 1.24-136.169 39.333-25.718 35.595 8.69 103.373 68.607 88.544 47.71-11.808 79.803-67.687 90.899-89.965a17.79 17.79 0 0 0-.826-17.391l-7.632-12.186z" fill="#ffd800"/><path d="M93.836 236.358c-16.691 15.201-8.404 29.091 12.698 29.199 21.103.108 50.381-26.419 66.576-42.582 16.195-16.164 28.809-41.667 28.809-41.667s-91.391 39.848-108.083 55.05z" fill="#dca700"/></svg>