<svg xmlns="http://www.w3.org/2000/svg" viewBox="0 0 512 512"><path d="M480 252c-4.422 0-8 3.582-8 8H40c0-4.418-3.578-8-8-8s-8 3.582-8 8v208c0 22.055 17.945 40 40 40h384c22.055 0 40-17.945 40-40V260c0-4.418-3.578-8-8-8z" fill="#ffee43"/><path d="M480 164H32c-17.648 0-32 14.355-32 32v48c0 17.645 14.352 32 32 32h448c17.648 0 32-14.355 32-32v-48c0-17.645-14.352-32-32-32z" fill="#ffd100"/><path fill="#ff4f19" d="M224 156h64v352h-64z"/><path fill="#e7001e" d="M224 407.313l64 64v-22.625l-64-64zM224 367.313l64 64v-22.625l-64-64zM288 231.313v-22.625L235.313 156H224v11.313zM224 327.313l64 64v-22.625l-64-64zM224 424.688v22.625L284.688 508H288v-19.312zM224 287.313l64 64v-22.625l-64-64zM224 207.313l64 64v-22.625l-64-64zM267.313 508L224 464.688v22.625L244.688 508zM224 247.313l64 64v-22.625l-64-64z"/><path d="M424 291.969c-31.586 0-50.203-32.934-68.203-64.785-13.333-23.584-27.024-47.742-46.855-58.039 37.64-14.671 85.006-34.957 99.145-49.094 26.516-26.512 26.516-69.652 0-96.164-26.516-26.516-69.656-26.516-96.172 0C295.42 40.378 270.544 102.129 256 140.862c-14.544-38.732-39.42-100.484-55.914-116.975-26.516-26.516-69.656-26.516-96.172 0-26.516 26.512-26.516 69.652 0 96.164 14.139 14.137 61.504 34.423 99.145 49.094-19.832 10.297-33.522 34.455-46.855 58.039-18 31.852-36.617 64.785-68.203 64.785-6.625 0-12 5.371-12 12s5.375 12 12 12c45.586 0 68.703-40.895 89.094-76.977 14.836-26.238 28.844-51.023 46.906-51.023V188h64v-.031c18.063 0 32.07 24.785 46.906 51.023 20.391 36.082 43.508 76.977 89.094 76.977 6.625 0 12-5.371 12-12s-5.376-12-12.001-12zM328.883 40.855c8.578-8.578 19.844-12.863 31.117-12.863 11.266 0 22.539 4.289 31.117 12.863 17.156 17.156 17.156 45.07 0 62.227-12.219 12.219-69.773 36.078-115.156 52.926 16.844-45.383 40.703-102.934 52.922-115.153zm-208 0c8.578-8.578 19.844-12.863 31.117-12.863 11.266 0 22.539 4.289 31.117 12.863 12.219 12.219 36.078 69.77 52.922 115.152-45.383-16.848-102.938-40.707-115.156-52.926-17.156-17.155-17.156-45.069 0-62.226z" fill="#e7001e"/></svg>