<svg xmlns="http://www.w3.org/2000/svg" viewBox="0 0 512 512"><path d="M394.122 68.409c-21.807 11.426-21.87 59.813-21.87 60.367l-149.559 35.447-6.695-2.862-76.252-32.586s5.535-117.851 168.735-106.404c18.455 1.295 38.925 4.24 61.62 9.201l24.021 36.837z" fill="#ff525d"/><path d="M232.197 122.645c3.217 17.943-3.603 30.319-16.199 38.716l-76.252-32.586s5.535-117.851 168.735-106.404c-.001 0-90.937 18.632-76.284 100.274z" fill="#ef4152"/><circle cx="407.183" cy="36.554" r="36.554" fill="#fcf8f2"/><path d="M393.601 36.554c0-16.174 10.508-29.884 25.066-34.701A36.499 36.499 0 0 0 407.178 0c-20.188 0-36.554 16.366-36.554 36.554s16.366 36.554 36.554 36.554c4.015 0 7.875-.657 11.488-1.853-14.557-4.816-25.065-18.527-25.065-34.701z" fill="#e5e1dc"/><path d="M129.418 298.189c-17.662 0-31.98-14.318-31.98-31.98s14.318-31.98 31.98-31.98h253.166c17.662 0 31.98 14.318 31.98 31.98s-14.318 31.98-31.98 31.98" fill="#efc1ab"/><path d="M382.581 240.454v58.497c0 14.162-1.274 36.293-5.055 52.356l-243.055.01c-.992-4.23-1.817-8.888-2.486-13.703-1.88-13.473-2.569-28.22-2.569-38.664v-58.497c0-10.726 1.337-21.139 3.854-31.082l32.627-16.47 93.495-47.207 119.334 63.678a126.465 126.465 0 0 1 3.855 31.082z" fill="#ffdac5"/><g fill="#efc1ab"><path d="M162.672 351.318h-28.199c-3.781-16.063-5.055-38.194-5.055-52.367v-58.497c0-10.726 1.337-21.139 3.854-31.082l25.891-7.854c-1.013 16.825-1.546 32.189-1.546 38.936v58.497c0 14.173 1.274 36.304 5.055 52.367z"/><path d="M204.823 301.489c-17.891 10.914-49.515 25.682-72.837 36.126-1.88-13.473-2.569-28.22-2.569-38.664v-58.497c0-10.726 1.337-21.139 3.854-31.082l32.627-16.47 36.053 12.387c28.199 0 33.63 77.443 2.872 96.2z"/></g><path d="M382.583 251.525v47.427c0 14.162-1.274 36.293-5.055 52.356l-243.055.01c-3.781-16.063-5.055-38.194-5.055-52.367v-47.427s8.282 60.356 55.552 60.356h142.06c47.271.001 55.553-60.355 55.553-60.355z" fill="#e5e1dc"/><path d="M453.853 512c-4.658-44.951-25.661-85.297-57.254-115.522a196.51 196.51 0 0 0-24.69-20.063L256.932 323.46l-116.84 52.955C94.921 407.455 63.923 456.187 58.147 512" fill="#ff525d"/><path d="M210.586 376.415l81.309-36.851-34.964-16.103-116.84 52.954C94.921 407.455 63.923 456.187 58.147 512h70.494c5.776-55.813 36.774-104.545 81.945-135.585z" fill="#ef4152"/><path d="M197.278 280.926a7.833 7.833 0 0 1-7.833-7.833v-11.061a7.833 7.833 0 0 1 15.666 0v11.061a7.833 7.833 0 0 1-7.833 7.833z" fill="#313344"/><path d="M372.956 364.68a216.838 216.838 0 0 1-.48 6.287 221.872 221.872 0 0 1-2.193 16.846 209.38 209.38 0 0 1-2.632 13.034v.01c-6.851 28.961-22.121 63.49-56.137 72.9l-7.499-19.468-48.011 46.226-45.964-44.272-2.037-1.953-7.509 19.468c-34.016-9.41-49.286-43.938-56.137-72.9v-.01a209.666 209.666 0 0 1-2.632-13.045c-.418-2.507-.783-4.93-1.097-7.227a214.13 214.13 0 0 1-1.086-9.598 224.569 224.569 0 0 1-.491-6.308l8.157-2.851 8.898-3.112 93.527-32.69 7.3-2.548 6.058 2.151 92.754 32.951 17.211 6.109z" fill="#fcf8f2"/><path d="M318.338 280.926a7.833 7.833 0 0 1-7.833-7.833v-11.061a7.833 7.833 0 0 1 15.666 0v11.061a7.833 7.833 0 0 1-7.833 7.833z" fill="#313344"/><path d="M225.754 297.218c3.593-13.358 15.791-23.196 30.288-23.196 14.496 0 26.695 9.838 30.288 23.196l-30.322 44.647-30.254-44.647z" fill="#ff525d"/><g fill="#e5e1dc"><path d="M372.471 370.963a221.872 221.872 0 0 1-2.193 16.846c-1.076.47-2.162.93-3.259 1.379-38.518 15.812-92.075 19.708-111.01-25.39-18.946 45.098-72.492 41.202-111.01 25.39-1.107-.46-2.204-.919-3.279-1.389a219.144 219.144 0 0 1-2.183-16.825c5.88-3.091 11.196-7.405 16.564-12.272 5.692-5.159 11.436-10.945 17.974-16.523 8.428-7.175 18.162-14.006 30.747-18.758 18.622-7.008 32.23-4.376 41.494.522a25.969 25.969 0 0 1 3.311 2.068 26.273 26.273 0 0 1 6.413 6.538 27.234 27.234 0 0 1 6.945-6.935 27.555 27.555 0 0 1 3.624-2.151c9.243-4.585 22.549-6.82 40.575-.042 12.334 4.648 21.901 11.29 30.194 18.319 6.705 5.661 12.554 11.551 18.361 16.825 5.421 4.92 10.79 9.296 16.732 12.398z"/><path d="M210.039 456.243l-2.037-1.953-7.509 19.468c-34.016-9.41-49.286-43.938-56.137-72.9v-.01a209.666 209.666 0 0 1-2.632-13.045c-.418-2.507-.783-4.93-1.097-7.227a214.13 214.13 0 0 1-1.086-9.598 224.569 224.569 0 0 1-.491-6.308l8.157-2.851 43.259 29.317c.001-.001-9.712 35.822 19.573 65.107z"/></g><path d="M392.037 353.912c-6.935 4.804-15.509 9.431-25.024 13.348-38.518 15.802-92.065 19.708-111.01-25.4-9.295 22.152-26.935 32.481-47.051 35.395-20.846 3.008-44.356-1.953-63.96-9.995-9.504-3.917-18.089-8.543-25.024-13.348 4.073 0 7.802-.543 11.29-1.546 16.335-4.637 27.384-18.946 42.821-32.116 8.418-7.175 18.152-14.016 30.747-18.758 18.622-7.018 32.23-4.376 41.494.522 4.063 2.141 7.342 5.128 9.723 8.595 2.559-3.708 6.131-6.883 10.569-9.076 9.243-4.585 22.549-6.83 40.575-.042 12.324 4.648 21.891 11.29 30.183 18.308 15.729 13.285 26.852 27.886 43.364 32.565 3.502 1.005 7.23 1.548 11.303 1.548z" fill="#fcf8f2"/><path d="M178.336 245.7a7.801 7.801 0 0 1-5.538-2.295 7.832 7.832 0 0 1 0-11.077c6.539-6.539 15.233-10.14 24.481-10.14 9.247 0 17.942 3.601 24.481 10.14a7.832 7.832 0 0 1 0 11.077 7.832 7.832 0 0 1-11.077 0 18.833 18.833 0 0 0-13.404-5.552 18.833 18.833 0 0 0-13.404 5.552 7.81 7.81 0 0 1-5.539 2.295z" fill="#e5e1dc"/><g fill="#fcf8f2"><path d="M337.281 245.7a7.801 7.801 0 0 1-5.538-2.295 18.833 18.833 0 0 0-13.404-5.552 18.833 18.833 0 0 0-13.404 5.552 7.832 7.832 0 0 1-11.077 0 7.832 7.832 0 0 1 0-11.077c6.539-6.539 15.234-10.14 24.481-10.14 9.248 0 17.943 3.601 24.481 10.14a7.832 7.832 0 0 1-5.539 13.372zM390.174 146.687v45.985c0 9.891-8 17.139-17.88 16.335a1424.365 1424.365 0 0 0-170.343-3.718 1424.21 1424.21 0 0 0-62.236 3.718c-9.88.804-17.891-6.444-17.891-16.335v-45.985c0-9.891 8.011-18.684 17.891-19.489a1432.22 1432.22 0 0 1 69.516-3.979h.01a1423.15 1423.15 0 0 1 163.053 3.979c9.88.805 17.88 9.599 17.88 19.489z"/></g><path d="M201.951 205.289a1424.21 1424.21 0 0 0-62.236 3.718c-9.88.804-17.891-6.444-17.891-16.335v-45.985c0-9.891 8.011-18.684 17.891-19.489a1432.22 1432.22 0 0 1 69.516-3.979h.01s-30.883 32.941-7.29 82.07z" fill="#e5e1dc"/><path d="M290.876 504.171c-3.341 0-6.393-2.217-7.432-5.384-1.061-3.233.124-6.899 2.919-8.856 5.564-3.895 13.438.973 12.224 7.742-.662 3.691-3.937 6.498-7.711 6.498z" fill="#fcf8f2"/><path d="M210.582 376.419l-1.629.836c-20.846 3.008-44.356-1.953-63.96-9.995-9.504-3.917-18.089-8.543-25.024-13.348 4.073 0 7.802-.543 11.29-1.546 16.335-4.637 27.384-18.946 42.821-32.116 0 0-17.567 23.959-4.762 40.471 12.804 16.513 41.264 15.698 41.264 15.698z" fill="#e8e3dd"/></svg>