<svg xmlns="http://www.w3.org/2000/svg" viewBox="0 0 512.001 512.001"><g fill="#ffe2c5"><path d="M118.031 276.192a39.414 39.414 0 0 0-6.82-.585c-21.745.055-39.328 17.791-39.272 39.615.057 21.825 17.729 39.471 39.473 39.417a39.448 39.448 0 0 0 6.619-.584v-77.863zM400.591 274.868c-1.883.004-3.73.152-5.542.412v78.213a39.44 39.44 0 0 0 5.744.409c21.745-.055 39.327-17.792 39.271-39.617-.056-21.825-17.728-39.474-39.473-39.417z"/></g><g fill="#f1d6bc"><path d="M73.434 304.336a39.694 39.694 0 0 0-1.497 10.886c.057 21.825 17.729 39.471 39.473 39.417a39.448 39.448 0 0 0 6.619-.584v-21.569a39.562 39.562 0 0 1-6.619.584c-18.052.045-33.286-12.115-37.976-28.734zM400.793 332.331a39.44 39.44 0 0 1-5.744-.409v21.569a39.44 39.44 0 0 0 5.744.409c21.745-.055 39.327-17.791 39.271-39.617a39.654 39.654 0 0 0-1.497-10.682c-4.667 16.541-19.792 28.685-37.774 28.73z"/></g><path d="M111.31 250.474v120.921c0 77.654 62.892 140.607 140.476 140.607h8.426c77.584 0 140.478-62.952 140.478-140.607V250.474H111.31z" fill="#f1f2f2"/><path d="M260.213 478.184h-8.426c-77.584 0-140.476-62.952-140.476-140.607v33.817c0 77.654 62.892 140.607 140.476 140.607h8.426c77.584 0 140.478-62.952 140.478-140.607v-33.817c.001 77.655-62.894 140.607-140.478 140.607z" fill="#414042" opacity=".05"/><path d="M138.617 250.071a64.058 64.058 0 0 0-.069 2.709v44.956c0 35.135 28.269 63.618 63.145 63.618 23.104 0 43.298-12.506 54.308-31.158 11.007 18.652 31.203 31.158 54.305 31.158 34.876 0 63.146-28.483 63.146-63.618V252.78c0-.908-.03-1.81-.067-2.709H138.617z" fill="#ffe2c5"/><path d="M310.306 350.317c-23.102 0-43.298-12.506-54.305-31.158-11.009 18.652-31.203 31.158-54.308 31.158-34.877 0-63.145-28.483-63.145-63.618v11.037c0 35.135 28.269 63.618 63.145 63.618 23.104 0 43.298-12.506 54.308-31.158 11.007 18.652 31.203 31.158 54.305 31.158 34.876 0 63.146-28.483 63.146-63.618v-11.037c0 35.135-28.27 63.618-63.146 63.618z" fill="#f1d6bc"/><g fill="#636052"><path d="M205.824 312.443c0 9.464-7.643 17.135-17.074 17.135-9.428 0-17.072-7.673-17.072-17.135 0-9.463 7.642-17.134 17.072-17.134 9.429-.001 17.074 7.672 17.074 17.134zM329.821 312.443c0 9.464-7.641 17.135-17.072 17.135-9.426 0-17.073-7.673-17.073-17.135 0-9.463 7.646-17.134 17.073-17.134 9.431-.001 17.072 7.672 17.072 17.134z"/></g><g fill="#ed5d51"><path d="M285.531 350.855c0 16.367-13.221 29.636-29.529 29.636-16.309 0-29.531-13.269-29.531-29.636 0-16.369 13.221-29.639 29.531-29.639 16.307 0 29.529 13.269 29.529 29.639zM406.977 240.64c0-103.551-118.333-187.499-150.976-187.499-28.564 0-150.976 83.948-150.976 187.499h301.952z"/></g><path d="M279.321 60.222c-9.607-4.611-17.724-7.08-23.32-7.08-28.564 0-150.976 83.948-150.976 187.499h45.2c0-85.799 84.033-158.136 129.096-180.419z" fill="#414042" opacity=".1"/><path d="M425.791 226.002c0 17.733-14.322 32.108-31.99 32.108H118.199c-17.667 0-31.99-14.375-31.99-32.108 0-17.733 14.322-32.107 31.99-32.107h275.602c17.667 0 31.99 14.374 31.99 32.107z" fill="#f1f2f2"/><path d="M130.965 226.002c0-17.733 14.321-32.107 31.989-32.107h-44.755c-17.667 0-31.99 14.375-31.99 32.107s14.322 32.108 31.99 32.108h44.755c-17.667 0-31.989-14.375-31.989-32.108z" fill="#414042" opacity=".1"/><path d="M297.34 40.637c0 22.441-18.129 40.638-40.493 40.638-22.359 0-40.486-18.197-40.486-40.638C216.362 18.192 234.489 0 256.847 0c22.364 0 40.493 18.192 40.493 40.637z" fill="#f1f2f2"/><path d="M238.754 40.637c0-18.544 12.381-34.173 29.291-39.05A40.347 40.347 0 0 0 256.847 0c-22.359 0-40.486 18.192-40.486 40.637 0 22.441 18.128 40.638 40.486 40.638 3.887 0 7.639-.561 11.198-1.586-16.91-4.878-29.291-20.511-29.291-39.052z" fill="#414042" opacity=".1"/></svg>