<svg height="511pt" viewBox="-81 1 511 511.999" width="511pt" xmlns="http://www.w3.org/2000/svg"><path d="M332.21 495.219c-22.37 22.37-58.644 22.37-81.015 0L51.063 295.082c-67.418-67.414-67.418-177.105 0-244.52 67.414-67.417 177.105-67.414 244.519 0l8.102 8.102c22.37 22.371 22.37 58.645 0 81.016-22.371 22.37-58.645 22.37-81.016 0l-8.102-8.102c-22.742-22.742-59.746-22.742-82.488 0s-22.742 59.746 0 82.488l200.133 200.137c22.371 22.371 22.371 58.64 0 81.016zm0 0" fill="#ef5361"/><path d="M271.082 475.332L70.945 275.199C6.88 211.13 3.703 108.883 61.41 41.023c-3.547 3.016-7 6.188-10.348 9.536-67.417 67.418-67.417 177.109 0 244.523l200.133 200.133c22.371 22.375 58.645 22.375 81.016 0a57.426 57.426 0 0 0 8.71-11.176c-22 13.133-50.898 10.234-69.839-8.707zm0 0M242.555 119.793l-8.102-8.102c-22.742-22.742-59.746-22.742-82.488 0a58.17 58.17 0 0 0-8.727 11.164c22.418-13.496 52.016-10.593 71.328 8.723l8.102 8.102c22.375 22.37 58.644 22.37 81.02 0a57.521 57.521 0 0 0 8.707-11.176c-21.997 13.129-50.899 10.23-69.84-8.711zm0 0" fill="#dc4250"/><g fill="#dae6ed"><path d="M310.004 391.996L332.21 414.2c22.375 22.375 22.375 58.645 0 81.02s-58.64 22.375-81.016 0l-22.941-22.942c-30.934-73.652 114.894-47.14 81.75-80.28zm0 0M148.855 230.848l77.504 77.5c33.145 33.144-112.687 6.629-81.754 80.28l-77.503-77.503c-30.93-73.652 114.898-47.137 81.753-80.277zm0 0M149.172 119.727a58.136 58.136 0 0 0-17.094 11.851c-11.328 11.328-17.012 26.192-17.05 41.074 0 .016-.008.024-.008.04-8.903 43.386-80.141-59.669-114.47 3.636-.925-45.43 15.91-91.168 50.513-125.77a173.033 173.033 0 0 1 23.78-19.874c.009-.008.016 0 .024-.008 49.383-19.14 40.117 94.71 74.305 89.05zm0 0"/></g><path d="M340.918 484.04c-.008.019-.023.034-.023.065a57.406 57.406 0 0 1-8.684 11.114c-22.375 22.375-58.64 22.375-81.016 0l-22.941-22.942c-7.195-17.14-4.824-28.851 2.629-37.144l40.199 40.199c18.941 18.941 47.844 21.844 69.836 8.707zm0 0M69.742 273.977c.395.414.801.816 1.207 1.222l76.29 76.29c-7.458 8.292-9.829 20.003-2.63 37.14l-77.504-77.504c-7.199-17.137-4.824-28.848 2.637-37.148zm0 0M61.41 41.023C33.13 74.285 19.473 115.797 20.438 157.047c-7.352 2.742-14.141 8.68-19.887 19.285-.926-45.43 15.91-91.168 50.511-125.77a176.987 176.987 0 0 1 10.266-9.484.301.301 0 0 0 .082-.055zm0 0" fill="#beccd3"/><path d="M295.586 50.563l8.101 8.101c22.368 22.367 22.375 58.64 0 81.016s-58.648 22.37-81.019 0c-36.969-36.973 21.898-112.84-17.8-136.793 33.253 6.12 65.058 22.015 90.718 47.675zm0 0M204.867 2.887c-.004-.008-.027-.012-.035-.02" fill="#dae6ed"/><path d="M312.39 128.5c-.015.027-.027.059-.042.086a57.064 57.064 0 0 1-8.664 11.094c-22.375 22.375-58.649 22.367-81.016 0-11.387-11.387-13.684-26.457-12.57-42.563 8.918 2.672 17.32 7.543 24.355 14.574l8.102 8.102c18.941 18.945 47.836 21.836 69.836 8.707zm0 0" fill="#beccd3"/><path d="M.55 176.328l-.007.008" fill="#dae6ed"/></svg>