<svg xmlns="http://www.w3.org/2000/svg" viewBox="0 0 512 512"><path d="M202.667 426.667H288c5.891 0 10.667 4.776 10.667 10.667v64c0 5.891-4.776 10.667-10.667 10.667h-85.333c-5.891 0-10.667-4.776-10.667-10.667v-64c0-5.892 4.776-10.667 10.667-10.667z" fill="#388e3c"/><circle cx="256" cy="341.333" r="32" fill="#ffb300"/><path d="M256 384c-23.564 0-42.667-19.102-42.667-42.667 0-23.564 19.103-42.667 42.667-42.667s42.667 19.103 42.667 42.667C298.667 364.898 279.564 384 256 384zm0-64c-11.782 0-21.333 9.551-21.333 21.333s9.551 21.333 21.333 21.333c11.782 0 21.333-9.551 21.333-21.333S267.782 320 256 320z"/><path d="M406.656 433.749a20.977 20.977 0 0 1-1.323-7.083l-10.667-.405 10.901-1.856a10.665 10.665 0 0 0-4.267-9.664 352.797 352.797 0 0 1-71.701-73.408h65.067c5.891 0 10.667-4.776 10.667-10.667 0-3.357-1.581-6.519-4.267-8.533a560.277 560.277 0 0 1-90.944-87.467h43.84a10.667 10.667 0 0 0 10.048-7.104c.666-1.907 1.6-3.71 2.773-5.355 3.467-4.763 2.416-11.434-2.347-14.901a10.178 10.178 0 0 0-.32-.224 442.52 442.52 0 0 1-108.8-136.043c-2.026-5.532-8.153-8.374-13.684-6.348a10.667 10.667 0 0 0-6.348 6.348 346.885 346.885 0 0 1-41.728 66.133 10.665 10.665 0 0 0-1.984 8.363c.254 1.251.397 2.521.427 3.797 0 11.782-9.551 21.333-21.333 21.333a10.668 10.668 0 0 0-7.851 3.456 150.418 150.418 0 0 1-49.067 39.787c-5.573 1.908-8.544 7.974-6.636 13.547a10.666 10.666 0 0 0 10.22 7.21h63.211a576.537 576.537 0 0 1-77.931 77.333c-4.586 3.698-5.306 10.413-1.608 14.999.093.115.188.228.286.34a21.322 21.322 0 0 1 4.053 6.891 10.666 10.666 0 0 0 10.027 7.104h45.717a330.805 330.805 0 0 1-91.861 86.805c-5.078 2.986-6.774 9.524-3.788 14.602a10.669 10.669 0 0 0 9.228 5.26h321.963c5.891.001 10.667-4.774 10.668-10.665 0-1.222-.21-2.435-.62-3.585h-.021z" fill="#4caf50"/><circle cx="170.667" cy="149.333" r="42.667" fill="#f44336"/><g fill="#ffc107"><circle cx="384" cy="234.667" r="42.667"/><circle cx="85.333" cy="341.333" r="42.667"/></g><circle cx="426.667" cy="426.667" r="42.667" fill="#f44336"/><path d="M292.779 65.131l-23.595-11.797 23.573-11.797c5.272-2.633 7.412-9.042 4.779-14.315s-9.042-7.412-14.315-4.779L256 36.075V10.667C256 4.776 251.224 0 245.333 0s-10.667 4.776-10.667 10.667v25.408l-27.221-13.611c-5.272-2.633-11.681-.494-14.315 4.779-2.633 5.272-.494 11.681 4.779 14.315l23.573 11.797-23.573 11.797c-5.272 2.633-7.412 9.042-4.779 14.315 2.633 5.272 9.042 7.412 14.315 4.779l27.221-13.653V96c0 5.891 4.776 10.667 10.667 10.667S256 101.891 256 96V70.592l27.221 13.611c5.272 2.633 11.681.494 14.315-4.779s.494-11.681-4.779-14.315l.022.022z" fill="#ffc107"/></svg>