<svg xmlns="http://www.w3.org/2000/svg" viewBox="0 0 512 512"><path d="M472.949 459.932c-47.729-30.92-78.102-60.746-78.102-60.746 22.78 2.169 34.747-26.034 34.747-26.034-22.242-5.424-60.711-43.39-60.711-43.39 22.233-.547 52.137-17.356 52.137-17.356-23.864-3.792-86.65-69.424-86.65-69.424 19.525 2.716 34.981-8.678 34.981-8.678-19.525-3.792-51.521-43.39-51.521-43.39 24.402 1.085 44.475-8.678 44.475-8.678-42.34-26.112-77.173-92.637-92.915-126.716C261.163 63.419 256 74.466 256 86.78c0-12.314-5.163-23.361-13.39-31.258-15.742 34.078-50.575 100.604-92.915 126.716 0 0 20.063 9.763 44.475 8.678 0 0-32.004 39.598-51.53 43.39 0 0 15.464 11.394 34.99 8.678 0 0-62.785 65.631-86.649 69.424 0 0 29.904 16.809 52.137 17.356 0 0-38.469 37.966-60.711 43.39 0 0 11.967 28.203 34.747 26.034 0 0-30.373 29.826-78.102 60.746 0 0 107.928 3.254 156.203-26.034 0 0-46.106 41.758-60.746 43.39 0 0 66.169-.547 91.119-26.034 0 0 13.017 14.64 30.373 17.356 17.356-2.716 30.373-17.356 30.373-17.356 24.949 25.487 91.119 26.034 91.119 26.034-14.64-1.631-60.746-43.39-60.746-43.39 48.274 29.286 156.202 26.032 156.202 26.032" fill="#559e62"/><g fill="#eec319"><path d="M275.008 251.661h-11.984a7.02 7.02 0 0 1-7.02-7.029v-11.976a7.02 7.02 0 0 1 7.02-7.029h11.984a7.027 7.027 0 0 1 7.029 7.029v11.976a7.027 7.027 0 0 1-7.029 7.029M248.974 173.559H236.99a7.02 7.02 0 0 1-7.02-7.029v-11.976a7.02 7.02 0 0 1 7.02-7.029h11.984a7.027 7.027 0 0 1 7.029 7.029v11.976a7.027 7.027 0 0 1-7.029 7.029M214.262 295.051h-11.984a7.02 7.02 0 0 1-7.02-7.029v-11.976a7.02 7.02 0 0 1 7.02-7.029h11.984a7.027 7.027 0 0 1 7.029 7.029v11.976a7.026 7.026 0 0 1-7.029 7.029M327.076 312.407h-11.984a7.02 7.02 0 0 1-7.02-7.029v-11.976a7.02 7.02 0 0 1 7.02-7.029h11.984a7.027 7.027 0 0 1 7.029 7.029v11.976a7.028 7.028 0 0 1-7.029 7.029M327.076 407.864h-11.984a7.02 7.02 0 0 1-7.02-7.029V388.86a7.02 7.02 0 0 1 7.02-7.029h11.984a7.027 7.027 0 0 1 7.029 7.029v11.976a7.027 7.027 0 0 1-7.029 7.028M257.652 355.797h-11.984a7.02 7.02 0 0 1-7.02-7.029v-11.976a7.02 7.02 0 0 1 7.02-7.029h11.984a7.027 7.027 0 0 1 7.029 7.029v11.976a7.028 7.028 0 0 1-7.029 7.029M188.229 399.186h-11.984a7.02 7.02 0 0 1-7.02-7.029v-11.976a7.02 7.02 0 0 1 7.02-7.029h11.984a7.027 7.027 0 0 1 7.029 7.029v11.976a7.027 7.027 0 0 1-7.029 7.029"/></g><path d="M256 468.61c-6.569-1.024-12.505-3.758-17.356-6.76v41.472h34.712V461.85c-4.851 3.003-10.787 5.736-17.356 6.76" fill="#994530"/><path d="M212.61 43.39C236.596 43.39 256 23.986 256 0c0 23.986 19.404 43.39 43.39 43.39-23.986 0-43.39 19.404-43.39 43.39 0-23.986-19.404-43.39-43.39-43.39" fill="#eec319"/><path d="M299.39 512h-86.78a8.676 8.676 0 0 1-8.678-8.678 8.676 8.676 0 0 1 8.678-8.678h86.78a8.676 8.676 0 0 1 8.678 8.678A8.676 8.676 0 0 1 299.39 512" fill="#7a3726"/></svg>